<?xml version="1.0" encoding="UTF-8"?>
<svg xmlns="http://www.w3.org/2000/svg" xmlns:xlink="http://www.w3.org/1999/xlink" width="17pt" height="26pt" viewBox="0 0 17 26" version="1.1">
<g id="surface1">
<path style=" stroke:none;fill-rule:nonzero;fill:rgb(15.686275%,18.039216%,35.686275%);fill-opacity:1;" d="M 11.164062 8 C 11.164062 4.273438 9.351562 1.0625 7.960938 0.0078125 C 7.960938 0.0078125 7.863281 -0.046875 7.863281 0.105469 C 7.746094 7.3125 4.058594 9.28125 2.007812 11.902344 C -2.683594 17.980469 1.679688 24.632812 6.125 25.855469 C 8.617188 26.542969 5.542969 24.632812 5.15625 20.617188 C 4.695312 15.742188 11.164062 12.035156 11.164062 8 "/>
<path style=" stroke:none;fill-rule:nonzero;fill:rgb(1.960784%,60.784314%,86.27451%);fill-opacity:1;" d="M 13.601562 10.46875 C 13.582031 10.449219 13.542969 10.449219 13.503906 10.46875 C 13.503906 10.46875 13.503906 10.46875 13.484375 10.484375 C 13.40625 11.382812 12.402344 13.335938 11.148438 15.113281 C 6.878906 21.152344 9.3125 24.058594 10.683594 25.628906 C 11.476562 26.542969 10.683594 25.628906 12.671875 24.691406 C 12.828125 24.613281 16.535156 22.664062 16.941406 18.246094 C 17.347656 13.945312 14.585938 11.25 13.601562 10.46875 "/>
</g>
</svg>
